<svg xmlns="http://www.w3.org/2000/svg" viewBox="0 0 64 64" role="img" aria-labelledby="title">
  <title id="title">ShelfPick</title>
  <rect width="64" height="64" rx="14" fill="#173F2C"/>
  <rect x="7" y="49" width="50" height="6" rx="2" fill="#9A572D"/>
  <rect x="10" y="20" width="10" height="27" rx="2" fill="#3A98A2"/>
  <rect x="23" y="14" width="11" height="33" rx="2" fill="#D8793E"/>
  <rect x="37" y="23" width="9" height="24" rx="2" fill="#35658E"/>
  <path fill="#E3AD55" d="M52 20a4 4 0 1 0 0 8 4 4 0 0 0 0-8Zm-4 9-5 4a2.5 2.5 0 0 0 3 4l1.4-1-2 9a2 2 0 0 0 3.4 1.8l3.2-3.5 3.2 3.5a2 2 0 0 0 3.4-1.8l-2-9 1.4 1a2.5 2.5 0 0 0 3-4l-5-4a7 7 0 0 0-8 0Z"/>
</svg>
